<svg height="1710" width="720" xmlns="http://www.w3.org/2000/svg">
<rect height="1710" fill="#555" width="720"></rect>
<text fill="#7f7" font-family="Courier New" font-size="12" xml:space="preserve">
<tspan x="10" y="26">12 megabytes installed</tspan>
<tspan x="10" y="42"></tspan>
<tspan x="10" y="58">node_modules</tspan>
<tspan x="10" y="74">└─┬ insight@0.8.4 </tspan>
<tspan x="10" y="90">  ├── async@1.5.2 </tspan>
<tspan x="10" y="106">  ├─┬ chalk@1.1.3 </tspan>
<tspan x="10" y="122">  │ ├── ansi-styles@2.2.1 </tspan>
<tspan x="10" y="138">  │ ├── escape-string-regexp@1.0.5 </tspan>
<tspan x="10" y="154">  │ ├── has-ansi@2.0.0 </tspan>
<tspan x="10" y="170">  │ ├── strip-ansi@3.0.1 </tspan>
<tspan x="10" y="186">  │ └── supports-color@2.0.0 </tspan>
<tspan x="10" y="202">  ├─┬ configstore@1.4.0 </tspan>
<tspan x="10" y="218">  │ ├── graceful-fs@4.1.11 </tspan>
<tspan x="10" y="234">  │ ├─┬ mkdirp@0.5.1 </tspan>
<tspan x="10" y="250">  │ │ └── minimist@0.0.8 </tspan>
<tspan x="10" y="266">  │ ├── os-tmpdir@1.0.2 </tspan>
<tspan x="10" y="282">  │ ├─┬ osenv@0.1.4 </tspan>
<tspan x="10" y="298">  │ │ └── os-homedir@1.0.2 </tspan>
<tspan x="10" y="314">  │ ├── uuid@2.0.3 </tspan>
<tspan x="10" y="330">  │ ├─┬ write-file-atomic@1.3.1 </tspan>
<tspan x="10" y="346">  │ │ ├── imurmurhash@0.1.4 </tspan>
<tspan x="10" y="362">  │ │ └── slide@1.1.6 </tspan>
<tspan x="10" y="378">  │ └── xdg-basedir@2.0.0 </tspan>
<tspan x="10" y="394">  ├─┬ inquirer@0.10.1 </tspan>
<tspan x="10" y="410">  │ ├── ansi-escapes@1.4.0 </tspan>
<tspan x="10" y="426">  │ ├── ansi-regex@2.1.1 </tspan>
<tspan x="10" y="442">  │ ├─┬ cli-cursor@1.0.2 </tspan>
<tspan x="10" y="458">  │ │ └─┬ restore-cursor@1.0.1 </tspan>
<tspan x="10" y="474">  │ │   ├── exit-hook@1.1.1 </tspan>
<tspan x="10" y="490">  │ │   └── onetime@1.1.0 </tspan>
<tspan x="10" y="506">  │ ├── cli-width@1.1.1 </tspan>
<tspan x="10" y="522">  │ ├── figures@1.7.0 </tspan>
<tspan x="10" y="538">  │ ├── lodash@3.10.1 </tspan>
<tspan x="10" y="554">  │ ├─┬ readline2@1.0.1 </tspan>
<tspan x="10" y="570">  │ │ ├── code-point-at@1.1.0 </tspan>
<tspan x="10" y="586">  │ │ ├─┬ is-fullwidth-code-point@1.0.0 </tspan>
<tspan x="10" y="602">  │ │ │ └── number-is-nan@1.0.1 </tspan>
<tspan x="10" y="618">  │ │ └── mute-stream@0.0.5 </tspan>
<tspan x="10" y="634">  │ ├─┬ run-async@0.1.0 </tspan>
<tspan x="10" y="650">  │ │ └─┬ once@1.4.0 </tspan>
<tspan x="10" y="666">  │ │   └── wrappy@1.0.2 </tspan>
<tspan x="10" y="682">  │ ├── rx-lite@3.1.2 </tspan>
<tspan x="10" y="698">  │ └── through@2.3.8 </tspan>
<tspan x="10" y="714">  ├─┬ lodash.debounce@3.1.1 </tspan>
<tspan x="10" y="730">  │ └── lodash._getnative@3.9.1 </tspan>
<tspan x="10" y="746">  ├── object-assign@4.1.1 </tspan>
<tspan x="10" y="762">  ├─┬ os-name@1.0.3 </tspan>
<tspan x="10" y="778">  │ ├─┬ osx-release@1.1.0 </tspan>
<tspan x="10" y="794">  │ │ └── minimist@1.2.0 </tspan>
<tspan x="10" y="810">  │ └─┬ win-release@1.1.1 </tspan>
<tspan x="10" y="826">  │   └── semver@5.3.0 </tspan>
<tspan x="10" y="842">  ├─┬ request@2.81.0 </tspan>
<tspan x="10" y="858">  │ ├── aws-sign2@0.6.0 </tspan>
<tspan x="10" y="874">  │ ├── aws4@1.6.0 </tspan>
<tspan x="10" y="890">  │ ├── caseless@0.12.0 </tspan>
<tspan x="10" y="906">  │ ├─┬ combined-stream@1.0.5 </tspan>
<tspan x="10" y="922">  │ │ └── delayed-stream@1.0.0 </tspan>
<tspan x="10" y="938">  │ ├── extend@3.0.0 </tspan>
<tspan x="10" y="954">  │ ├── forever-agent@0.6.1 </tspan>
<tspan x="10" y="970">  │ ├─┬ form-data@2.1.4 </tspan>
<tspan x="10" y="986">  │ │ └── asynckit@0.4.0 </tspan>
<tspan x="10" y="1002">  │ ├─┬ har-validator@4.2.1 </tspan>
<tspan x="10" y="1018">  │ │ ├─┬ ajv@4.11.7 </tspan>
<tspan x="10" y="1034">  │ │ │ ├── co@4.6.0 </tspan>
<tspan x="10" y="1050">  │ │ │ └─┬ json-stable-stringify@1.0.1 </tspan>
<tspan x="10" y="1066">  │ │ │   └── jsonify@0.0.0 </tspan>
<tspan x="10" y="1082">  │ │ └── har-schema@1.0.5 </tspan>
<tspan x="10" y="1098">  │ ├─┬ hawk@3.1.3 </tspan>
<tspan x="10" y="1114">  │ │ ├── boom@2.10.1 </tspan>
<tspan x="10" y="1130">  │ │ ├── cryptiles@2.0.5 </tspan>
<tspan x="10" y="1146">  │ │ ├── hoek@2.16.3 </tspan>
<tspan x="10" y="1162">  │ │ └── sntp@1.0.9 </tspan>
<tspan x="10" y="1178">  │ ├─┬ http-signature@1.1.1 </tspan>
<tspan x="10" y="1194">  │ │ ├── assert-plus@0.2.0 </tspan>
<tspan x="10" y="1210">  │ │ ├─┬ jsprim@1.4.0 </tspan>
<tspan x="10" y="1226">  │ │ │ ├── assert-plus@1.0.0 </tspan>
<tspan x="10" y="1242">  │ │ │ ├── extsprintf@1.0.2 </tspan>
<tspan x="10" y="1258">  │ │ │ ├── json-schema@0.2.3 </tspan>
<tspan x="10" y="1274">  │ │ │ └── verror@1.3.6 </tspan>
<tspan x="10" y="1290">  │ │ └─┬ sshpk@1.13.0 </tspan>
<tspan x="10" y="1306">  │ │   ├── asn1@0.2.3 </tspan>
<tspan x="10" y="1322">  │ │   ├── assert-plus@1.0.0 </tspan>
<tspan x="10" y="1338">  │ │   ├── bcrypt-pbkdf@1.0.1 </tspan>
<tspan x="10" y="1354">  │ │   ├─┬ dashdash@1.14.1 </tspan>
<tspan x="10" y="1370">  │ │   │ └── assert-plus@1.0.0 </tspan>
<tspan x="10" y="1386">  │ │   ├── ecc-jsbn@0.1.1 </tspan>
<tspan x="10" y="1402">  │ │   ├─┬ getpass@0.1.6 </tspan>
<tspan x="10" y="1418">  │ │   │ └── assert-plus@1.0.0 </tspan>
<tspan x="10" y="1434">  │ │   ├── jodid25519@1.0.2 </tspan>
<tspan x="10" y="1450">  │ │   ├── jsbn@0.1.1 </tspan>
<tspan x="10" y="1466">  │ │   └── tweetnacl@0.14.5 </tspan>
<tspan x="10" y="1482">  │ ├── is-typedarray@1.0.0 </tspan>
<tspan x="10" y="1498">  │ ├── isstream@0.1.2 </tspan>
<tspan x="10" y="1514">  │ ├── json-stringify-safe@5.0.1 </tspan>
<tspan x="10" y="1530">  │ ├─┬ mime-types@2.1.15 </tspan>
<tspan x="10" y="1546">  │ │ └── mime-db@1.27.0 </tspan>
<tspan x="10" y="1562">  │ ├── oauth-sign@0.8.2 </tspan>
<tspan x="10" y="1578">  │ ├── performance-now@0.2.0 </tspan>
<tspan x="10" y="1594">  │ ├── qs@6.4.0 </tspan>
<tspan x="10" y="1610">  │ ├── safe-buffer@5.0.1 </tspan>
<tspan x="10" y="1626">  │ ├── stringstream@0.0.5 </tspan>
<tspan x="10" y="1642">  │ └── tunnel-agent@0.6.0 </tspan>
<tspan x="10" y="1658">  ├─┬ tough-cookie@2.3.2 </tspan>
<tspan x="10" y="1674">  │ └── punycode@1.4.1 </tspan>
<tspan x="10" y="1690">  └── uuid@3.0.1</tspan>
</text>
</svg>
